<?xml version="1.0" encoding="utf-8"?>
<!-- Generator: Adobe Illustrator 24.3.0, SVG Export Plug-In . SVG Version: 6.00 Build 0)  -->
<svg version="1.1" id="Layer_1" xmlns="http://www.w3.org/2000/svg" xmlns:xlink="http://www.w3.org/1999/xlink" x="0px" y="0px"
	 viewBox="0 0 1024 1024" style="enable-background:new 0 0 1024 1024;" xml:space="preserve">
<style type="text/css">
	.st0{fill:#FECF53;}
	.st1{fill:#FEB24C;}
	.st2{fill:#F0EEFB;}
	.st3{fill:#0F734B;}
	.st4{fill:#329567;}
	.st5{fill:#319566;}
	.st6{fill:#22663D;}
	.st7{fill:#196A42;}
	.st8{fill:#FDB24D;}
	.st9{fill:#FECF52;}
	.st10{fill:#FDCF53;}
	.st11{fill:#1D8159;}
	.st12{fill:#1C8159;}
	.st13{fill:#FEE490;}
	.st14{fill:#D9B148;}
	.st15{fill:#DEE6ED;}
	.st16{fill:#FDCF54;}
	.st17{fill:#DEE7ED;}
	.st18{fill:#B9D1D4;}
	.st19{fill:#FED053;}
	.st20{fill:#2E9365;}
	.st21{fill:#FAFBFB;}
	.st22{fill:#B8D1D4;}
	.st23{fill:#D9B249;}
	.st24{fill:#1F8A55;}
	.st25{fill:#D9B248;}
</style>
<g>
	<path class="st0" d="M293.45,569.48c-13.4-18.89-22.71-39.78-29.34-61.83c-8.44-28.05-12.51-56.78-11.91-86.14
		c1.17-58.36,18.44-111.11,55.03-156.99c31.25-39.18,70.92-66.25,118.67-81.58c25.47-8.17,51.47-12.75,78.23-13.43
		c60.35-1.54,114.68,16.08,162.64,52.28c40.84,30.82,69.31,71.08,86.12,119.5c11.05,31.82,15.57,64.57,13.89,98.15
		c-0.75,15.1-3.2,30.02-5.95,44.88c-3.85,3.91-9.19,4.57-13.98,6.44c-5.86-3.96-12.71-6.02-18.68-9.75
		c-1.87-1.17-3.77-2.34-4.41-4.68c-1.39-7.22-5.71-12.54-11.1-17.18c-2.6-3.57-7.58-3.4-10.39-6.63c-0.35-1-0.27-1.95,0.3-2.85
		c1.26-1.53,3.49-1.56,4.75-3.04c1.11-2.21-0.21-3.65-1.54-5.07c-2.2-2.34-2.6-5.1-2.84-8.28c-0.73-9.56-1.16-19.28-6.09-27.95
		c-0.74-1.39,0.3-2.77,0.16-3.99c-1.13-1.29-2.86-1.24-3.69-2.53c-1.11-1.26-0.62-3.12-2.1-5.01c-7.37-2.74-14.07-8.47-22.67-10.24
		c-5.53-1.14-11.04-0.93-16.57-0.3c-1.1,0.12-2.19,0.77-3.26,0.68c-9.32-0.8-14.4,5.47-19.56,11.62c-0.92,1.1-1.54,2.64-2.8,3.22
		c-5.68,2.62-6.36,8.1-8.29,13.13c-3.72,9.67-3.3,20.09-5.99,29.83c-2.02,7.32-0.57,14.92-3.14,22.04c-0.61,1.69-0.04,3.46,0.4,5.17
		c0.48,1.83,1.18,3.68-0.04,5.59c-1.43,1.26-3.85,0.11-5.34,2.27c1.95,2.07,5.26,1.77,7.65,4.25c1.7,6.64,1.33,13.99,1.61,21.24
		c0.41,10.62,1.48,21.24,0.17,31.91c-0.54,4.39,0.38,9.03-4.3,12.24c4.29,3.33,4.07,7.53,4.1,11.93
		c0.07,11.28,0.34,22.57,0.61,33.85c0.22,9.1,2.83,11.84,11.78,13.1c5.03,0.71,10.15,1.31,15.2,1.03c7.14-0.4,13.76,2.55,20.78,2.6
		c0.97,0.01,1.74,0.72,2.32,1.71c0.76,1.5,0.23,2.98-0.51,4.44c-2.94,3.41-7.24,4.56-11.05,6.43c-30.4,14.98-62.45,24.73-96,29.4
		c-9.77,1.36-19.64,1.75-29.49,2.39c-27.27,1.77-54.04-1.41-80.6-7.03c-19.82-4.2-39.21-9.94-57.89-17.87
		c-0.46-0.16-0.92-0.36-1.36-0.57c-25.32-11.07-49.71-23.79-72.01-40.29C307.4,581.98,300.01,576.23,293.45,569.48z"/>
	<path class="st1" d="M403.39,766.2c-0.35-20.16,1.36-40.39-1.67-60.45c-2.91-19.21-11.5-35.83-23.93-50.58
		c-0.6-0.72-1.06-1.56-1.59-2.35c5.06-0.45,6.78,4.19,10.12,6.84c-0.28-3.86-1.93-6.52-4.96-8.43c-2.94-1.86-5.28-4.16-4.76-7.85
		c-3.74-2.11-7.44-3.73-8.53-7.97c-1.68-1.22-3.92-1.87-4.37-4.44c1.3-4.87,2.82-5.97,7.23-4.89c3.73,0.91,7.37,1.67,11.2,0.28
		c1.6-0.58,3.42-0.14,5.05,0.54l0,0c4.27,4.24,9.06,7.3,15.38,7.53c2.96,0.11,4.55,2.63,6.1,5.04c4.23-0.08,8.21,3.13,12.45,0.4
		c4.99,1.97,4.97,6.76,6.61,10.73c11.32-0.49,22.7-0.41,33.81,2.92c1.57,0.33,2.29,2.01,3.65,2.55c14.17,0.53,28.18,0.98,42.19,1.47
		c13.89,0.49,27.8-1,41.71-1.67c1.85-0.85,2.88-2.68,4.62-3.51c4.01-1.91,7.9-2.96,12.22-0.41c2.98,1.76,6.97,0.61,9.45,2.83
		c7.44-1.66,12.57-6.96,19.37-8.71c1.5-0.65,3.08,0.26,4.66-0.2c0.55-0.32-0.03,0.26,0.44-0.16c5.22-4.56,11.45-6.5,18.21-7.09
		c1.11-0.1,2.51,0.05,3.16-0.83c4.03-5.39,10.49-4.59,15.91-6.37c1.56-0.51,2.98-1.03,4.1-2.24c2.63-2.83,6.47-3.28,10.17-5.15
		c2.58-6.46,8.37-4.65,13.42-4.64c3.44,4.04,3.01,9.84-1.51,13.08c-6.93,4.99-12.37,11.29-17.73,17.77
		c-2.69,3.25-6.21,2.41-10.49,0.57c-3.2,9.95-5.53,20.22-14.37,26.92c2.5-2.13,4.63-4.37,6.41-6.95c1.27-1.84,2.88-3.89,5.69-3.66
		c0.08,0.01,0.19,0.2,0.2,0.31c0.02,0.15-0.04,0.31-0.07,0.47c-4.03,6.47-8.11,12.92-12.08,19.43c-4.06,6.67-6.14,13.94-6.13,21.75
		c0.03,18.31,0.12,36.62,0.23,54.93c0,0.76,0.4,1.51,0.61,2.27c0.78,13.55-4.89,24.65-13.55,34.39
		c-15.92,17.91-37.07,25.47-59.86,29.67c-19.24,3.44-38.58,3.34-57.94,1.47c-2.74-0.26-5.83-0.16-7.82-2.79
		c-0.92-1.94-0.84-4.03-0.8-6.09c0.47-27.04-1.55-54.04-1.04-81.09c0.21-10.78-5.65-16.7-15.77-16.82
		c-8.94-0.11-15.32,6.33-15.5,16.4c-0.32,18.13-0.08,36.27-0.11,54.41c-0.01,4.93,0.04,9.86-0.02,14.8
		c-0.02,2.06,0.04,4.16-1.23,5.97c-1.63,1.78-3.23,0.64-4.72-0.18c-16.88-9.29-28.17-23.04-33.31-41.73
		C403.13,771.88,403.29,769.05,403.39,766.2z"/>
	<path class="st2" d="M900.61,536.97c-4.33-14.17-12.9-25.56-24.52-34.86c-18.62-14.9-39.81-22.6-63.51-23.41
		c-7.92-0.28-15.84,0.08-23.78,0.73c-9.53,0.78-18.81,2.32-27.97,4.89c-4.66,1.92-9.33,3.85-13.98,5.78
		c-3.43,0.41-6.19,2.3-8.95,4.16c-3.95,2.65-7.7,5.74-12.95,5.56c-2.22,3.53-5.33,6.13-7.24,9.64
		c-5.09,9.33-11.12,18.14-15.32,27.94c-2.52,6.44-2.11,13.11-1.58,19.8c1.71,9.45,5.4,18.04,11.21,25.7c1.3,1.79,2.3,3.75,3.23,5.73
		c3.29,0.74,5.25,3.46,7.66,5.39c23.12,18.45,49.78,26.41,78.97,27.17c7.33,0.19,14.51-0.66,21.73-1.85
		c24.8-4.08,47.74-12.31,64.93-31.54C901.5,573.31,906.46,556.1,900.61,536.97z M864.97,559.88c-9.17,8.87-19.91,15.12-32.14,18.74
		c-12.21,3.62-24.67,6.1-37.44,5.17c-21.7-1.59-41.82-7.36-57.53-23.68c-1.94-2.01-3.6-4.05-3.55-7c-0.14-3.27,0.85-6.26,2.26-9.14
		c5.64-11.55,15.59-18.3,26.87-23.09c14.33-6.08,29.26-8.44,45.01-7.08c17.18,1.49,33.12,5.61,46.67,16.66
		c6.97,5.71,12.78,12.37,14.18,21.79C869.25,555.59,867.11,557.81,864.97,559.88z"/>
	<path class="st3" d="M599.58,906.29c-8.99,28.63-26.9,49.63-54.64,61.17c-46.74,19.45-98.2-1.04-120.35-47.3
		c-1.98-4.13-4.23-8.19-5.04-12.8c1.92-1.43,2.27-1.52,5.01,0.7c5.61,4.55,11.88,7.98,18.32,11.13
		c19.18,9.38,39.51,13.82,60.81,14.42c20.76,0.58,40.92-2.26,60.44-9.48c11.13-4.12,21.5-9.56,30.9-16.82
		C597.66,905.28,597.66,905.27,599.58,906.29z"/>
	<path class="st4" d="M400.65,848.82c-1.07-7.48-3.61-14.76-2.99-22.46c0.2-2.49-0.4-5.07,0.78-7.45c0.41,0.26,0.85,0.55,0.94,1.02
		c2.94,15.56,13.68,25.41,25.84,33.63c16.94,11.45,36.21,17.01,56.32,19.7c10.89,1.45,21.84,2.54,32.84,1.94
		c26.93-1.46,53.18-5.7,76.85-19.87c8.87-5.31,16.18-12.1,22.08-20.73c3.54-5.17,5.93-10.56,7.37-16.52
		c1.92,8.51,0.87,16.89-1.14,25.21c-0.44,1.84-1.15,3.6-0.96,5.54c-1.98,9.66-8.44,16.31-15.64,22.15
		c-18.58,15.08-40.44,22.61-63.7,26.51c-31.94,5.35-63.2,2.73-93.44-9.15c-11.17-4.39-21.59-10.27-30.7-18.2
		C408.4,864.34,402.63,857.85,400.65,848.82z"/>
	<path class="st5" d="M599.58,906.29c-0.26-0.16-0.69-0.51-0.76-0.44c-19.27,16.41-42.21,24.42-66.76,27.65
		c-37.35,4.92-72.79-0.79-104.99-21.65c-2.44-1.58-3.74-5.15-7.52-4.49c-3.65-4.79-7.59-9.39-10.88-14.41
		c-5.71-8.73-10.17-18.01-10.07-28.82c2.88-1.4,4.25,0.82,5.27,2.62c13.68,24.16,36.74,34.11,61.81,41.1
		c12.96,3.61,26.29,5.31,39.61,5.43c29.03,0.26,56.98-5.01,82.68-19.37c10.49-5.86,18.69-14.16,25.5-23.99
		c1.61-2.32,3.24-5.4,7.13-3.88c-1.13,14.22-8.53,25.38-17.4,35.84C601.98,903.33,600.79,904.82,599.58,906.29z"/>
	<path class="st6" d="M620.67,818.09c0,3.02,0,6.03,0,9c-5.42,4.61-7.52,11.28-12.16,16.16c-12.46,13.09-28.1,20.57-45.06,25.59
		c-19.94,5.9-40.39,8.49-61.15,7.63c-27.12-1.12-53.24-6.34-76.75-20.91c-9.21-5.71-16.75-13.12-22.27-22.47
		c-1.09-1.85-2.27-3.37-4.85-4.19c0-3.35,0-6.67,0-9.99c0.19-2.61,0.74-5.14,1.82-7.54c2.07-0.55,2.27,1.26,2.82,2.4
		c2.9,6.03,6.87,11.23,11.97,15.55c20.8,16.72,45.27,23.95,71.12,27.7c26.28,3.81,52,0.78,77.28-6.59
		c14.46-4.22,27.85-10.79,39.57-20.44c5.67-3.9,9.37-9.36,12.36-15.44c0.75-1.52,0.72-3.92,3.32-3.98
		C619.18,813.12,620.85,815.36,620.67,818.09z"/>
	<path class="st7" d="M620.61,866.04c-3.85,0.09-5.4,3.29-7.04,5.8c-10.65,16.39-26.39,25.76-44.2,32.12
		c-16.34,5.83-33.12,9.22-50.61,10.13c-29.47,1.54-57.44-3.24-83.85-16.53c-13.63-6.86-24.78-16.38-31.91-30.17
		c-0.86-1.66-2.2-3.17-4.4-3.27c-0.82-5.3-0.36-10.43,2.04-15.31c3.52,5.23,5.82,11.25,10.44,15.79
		c14.69,14.43,32.61,22.75,52.18,28.22c19.5,5.45,39.46,7.18,59.42,5.51c29.13-2.44,56.82-10.05,80.23-28.84
		c5.1-4.09,9.21-9.15,12.41-14.91c1.07-1.92,1.54-4.19,3.26-5.75C621.55,854.3,621.41,860.13,620.61,866.04z"/>
	<path class="st8" d="M713.19,582.98c0.95,1.79,3.94,2.84,2.05,5.66c-4.36,2.38-5.76,7.51-9.63,10.35
		c-2.31,2.17-4.94,4.04-6.46,6.95c-1.95,2.57-4.2,4.84-6.77,6.78c-4.88,3.63-8.94,8.13-13.17,12.44c-0.87,1.12-1.82,2.13-3.2,2.63
		c-2.15,1.36-4.47,2.5-5.86,4.79c-2.83,2.24-5.65,4.47-8.48,6.71c-3.54,1.15-5.58,4.07-7.87,6.69c-0.83,0.74-1.66,1.48-2.49,2.22
		c-0.48-0.07-1.15-0.2-1.38,0.1c-4.55,5.98-11.72,9.69-14.76,16.98c-0.74,0.88-1.48,1.77-2.22,2.65c-6.01,2.67-8.47,8.19-11.48,13.9
		c-0.81-1.92-1.63-3.84-2.64-6.2c7.15-3.12,9.67-9.75,12.82-16.53c-0.11-0.58-0.35-1.8-0.64-3.24c1.83-2.18,2.23-5.55,6.22-7
		c0.39,1.04,0.86,2.28,0.95,2.54c3.11,0.4,4.61-0.62,5.49-0.89c6.52-7.5,11.87-15.14,20.29-19.58c0.75-2.23,0.87-4.54,2.37-5.73
		c0.22-2.26-0.36-3.65-2-5c-3.37,2.21-10.15-3.45-11.16,4.96c-3.24,1.1-6.48,2.19-9.79,3.3c-0.98,1.23-1.96,2.47-3.11,3.93
		c-4.97-0.43-9.35,3.2-14.32,2.3c-1.85,1.8-2.66,4.05-5.11,5.35c-3.48-1.97-6.91,3.48-10.68,0.22c-3.61,2.87-7.57,4.6-10.6,7.78
		c-1.51-0.52-2.84-0.98-4.44-1.54c-1.86,1.88-3.57,4.69-6.78,2.45c-1.37,1.73-2.35,2.96-3.49,4.41c-1.39,0.16-2.95,0.34-4.75,0.55
		c-0.87,0.8-1.9,1.75-2.74,2.52c-2.79,0.25-4.42-1.47-6.46-2.68c-1.27,0.27-2.64,0.55-4.05,0.85c-1.28-1.08-2.49-2.1-3.74-3.16
		c-4.96,0.26-9.91,0.59-12.31,5.38c-2.25,1.33-3.83-0.12-5.82-0.15c-1.64,0.77-3.51,1.64-5.58,2.61c-2.18-1.02-4.53-2.08-7.03-0.66
		c-1.39-0.71-2.64-1.35-3.85-1.97c-10.16,3.97-20.32,2.73-31.82,0.96c-9.76,3.38-21.12-2.82-32.31,0.71
		c-0.95-1.5-1.78-2.82-2.82-4.46c-4.06,2.66-7.54-3.55-11.45-0.12c-4.84-3.3-9.43-4.35-13.81-0.43c-2.22-0.87-4.1-1.61-5.81-2.28
		c-1.82,0.31-2.71,2.12-4.86,1.92c1.23-4.8-1.03-8.52-3.5-11.91c-2.24-0.45-2.69,1.63-4.48,1.85c-3.1-0.83-6.32-2.9-9.39-1.8
		c-2.22-1.16-1.59-3-2.66-4.33c-4.81-1.98-10.63-1.46-16-5.65c-0.39-0.68-1.4-2.45-2.41-4.22c13.63,4.76,27.08,10,41.11,13.58
		c19.19,4.9,38.46,9.12,58.31,10.47c9.96,0.68,19.91,1.96,29.87,1.68c37.97-1.08,75.05-7.24,110.44-21.44
		c12.19-4.89,24.51-9.72,35.75-16.73c5.85-4.21,11.74-8.34,18.98-9.86c1.42,2.02-1.61,4.22,0.43,6.47c2.49-0.74,4.18-3,7.35-3.84
		c-2.19-1.77-4.69-1.32-5.89-3.16c-0.35-2.03,1.21-2.78,2.53-3.56c8.05-4.73,15.77-9.93,22.89-16
		C710.1,583.55,711.4,582.46,713.19,582.98z"/>
	<path class="st9" d="M256.23,136.05c4.07-0.29,7.17,1.24,9.67,3.89c16.07,17.01,32.18,33.99,48.1,51.14
		c4.94,5.32,4.38,12.25-0.76,17.02c-4.81,4.45-11.61,4.11-16.58-1.14c-15.97-16.89-31.87-33.85-47.75-50.83
		c-3.62-3.87-5.24-8.4-2.98-13.55C247.92,138.04,251.41,135.64,256.23,136.05z"/>
	<path class="st9" d="M719.56,210.98c-4.81,0.27-8.51-1.73-10.52-5.98c-2.16-4.59-2.2-9.16,1.64-13.25
		c16.32-17.39,32.53-34.89,48.89-52.24c4.66-4.95,11.92-5.13,16.7-0.83c4.58,4.11,4.94,11.19,0.33,16.21
		c-16.12,17.58-32.38,35.01-48.59,52.51C725.73,209.88,722.95,211.17,719.56,210.98z"/>
	<path class="st10" d="M820.88,415.72c-1.23,0-2.98,0.05-4.73-0.01c-6.06-0.21-10.33-4.45-10.71-10.6
		c-0.35-5.62,3.96-11.03,9.74-11.63c10.27-1.06,20.57-1.87,30.87-2.73c11.88-0.99,23.75-1.99,35.64-2.81
		c4.54-0.32,9.27-1.16,13.05,2.7c3.28,3.35,4.64,7.23,3.22,11.73c-1.52,4.82-4.85,7.91-9.99,8.32
		C865.78,412.43,843.59,414.03,820.88,415.72z"/>
	<path class="st9" d="M525.78,94.68c0,10.84,0.08,21.68-0.03,32.52c-0.06,5.7-3,9.83-7.72,11.49c-4.65,1.63-9.65,0.23-13.07-3.51
		c-2.09-2.28-2.7-5.05-2.72-7.94c-0.13-21.5-0.18-43-0.25-64.51c-0.03-8.2,4.36-13.35,11.51-13.51c7.36-0.16,12.08,4.98,12.13,13.42
		c0.07,10.68,0.02,21.36,0.02,32.04C525.69,94.68,525.74,94.68,525.78,94.68z"/>
	<path class="st9" d="M707.42,657.22c-0.21-4.83,1.66-8.1,5.6-10.1c3.95-2,8.06-2.19,11.83,0.22c2.25,1.44,4.15,3.46,6.08,5.35
		c14.58,14.27,29.15,28.55,43.69,42.87c4.32,4.26,5.36,10.3,2.69,14.79c-3.82,6.43-12.04,7.77-17.63,2.67
		c-5.65-5.15-11.1-10.53-16.61-15.83c-10.45-10.06-20.86-20.16-31.33-30.19C708.79,664.19,707.04,660.99,707.42,657.22z"/>
	<path class="st0" d="M139.22,387.79c18.83,1.65,41.01,3.51,63.17,5.6c6.96,0.65,11.02,5.54,10.42,11.69
		c-0.71,7.29-5.64,11.71-12.86,11.12c-13.94-1.15-27.86-2.55-41.8-3.75c-8.08-0.7-16.17-1.27-24.26-1.8
		c-8.65-0.56-13.82-6.04-12.82-13.77C121.91,390.41,126.79,387.37,139.22,387.79z"/>
	<path class="st9" d="M207.47,668.28c-6.06-0.07-9.96-2.9-11.79-7.87c-1.84-4.99-0.78-9.41,3.68-12.7c6.9-5.1,14-9.94,21.08-14.79
		c11.28-7.73,22.63-15.36,33.91-23.09c3.28-2.25,6.7-3.72,10.72-2.63c4.66,1.26,7.94,4.08,8.88,8.97c0.95,4.92-1.1,8.71-5.08,11.49
		c-12.39,8.65-24.8,17.26-37.21,25.87c-6.01,4.17-12.04,8.31-18.03,12.51C211.47,667.55,209.2,668.55,207.47,668.28z"/>
	<path class="st11" d="M618.69,810.56c-3.72,7.46-7.18,15.12-14.44,20.04c-2.84,0.32-4.62,2.53-6.86,3.91
		c-2.98,1.83-6,3.55-9.15,5.07c-6.97,3.35-13.56,4.12-20.66-0.37c-6.56-4.15-14.06-6.58-21.69-8.3c-1.15-0.26-2.67-0.18-2.75-1.99
		c14.82-3.09,29.26-7.19,42.14-15.53c16.74-10.85,28.07-25.18,29.64-45.84c0.03-0.42,0.43-0.81,0.65-1.22
		C622.64,780.64,623.62,795.39,618.69,810.56z"/>
	<path class="st12" d="M413.94,829.7c-6.61-4.58-9.8-11.72-13.69-18.33c-4.51-15.44-4.45-30.57,3.13-45.17
		c1.7,6.39,2.69,12.95,5.61,19.02c6.89,14.37,17.77,24.64,31.83,31.77c5.2,0.37,9.29,3.74,14.11,5.23
		c4.93,1.53,9.86,3.25,14.59,5.43c-2.56,3.76-6.87,4.57-10.68,5.98c-5.34,1.99-11.09,2.85-16.32,5.15
		c-6.49,2.85-12.08,0.54-17.74-2.31C420.96,834.54,418.15,831,413.94,829.7z"/>
	<path class="st8" d="M387.17,626.91c-4.69-0.6-9.04,3.24-13.9,1c-1.54-0.71-3.3-0.95-4.96-1.4c-2.34,0.5-3.39,2.12-3.84,4.29
		c1.06,2.92,3.34,3,5.83,2.51c0.7,1.83-1.74,2.17-1.56,3.78c2.6,0.56,3.96,2.91,6.12,4.61c0.85-0.27,1.81-0.57,2.66-0.84
		c1.72,1.86-0.67,3.53-0.37,4.04c2.2,4.52,5.83,5.57,8.6,8.02c0.77,2.75,2.43,5.51,2.14,10.08c-4.73-3.44-6.73-8.72-11.71-10.18
		c-12.93-14.41-30.02-23.83-44.17-36.73c-14.2-12.95-26.3-27.78-37.09-43.67c-0.61-0.9-1-1.96-1.49-2.94
		c3.84,0.9,5.92,4.26,8.68,6.53c14.36,11.85,29.69,22.2,45.88,31.37C360.73,614.58,374.05,620.54,387.17,626.91z"/>
	<path class="st1" d="M635.17,665.29c-0.98-4.07,4.51-4.99,3.8-8.69c3.98-1.61,6.97-3.76,8.51-7.54c0.8-1.96,2.03-2.95,3.84-0.85
		C645.84,653.82,640.06,659.14,635.17,665.29z"/>
	<path class="st1" d="M679.21,625.16c-1.31-0.91-0.37-1.68,0.31-2.15c4.25-2.97,7.63-6.87,11.35-10.41c0.52-0.49,1.06-0.6,1.51,0.12
		C688.31,617.21,684.08,621.52,679.21,625.16z"/>
	<path class="st1" d="M653.8,645.99c-0.63-0.09-1.22-0.23-1.26-1.41c2.44-1.3,4.83-2.99,6.8-5.22c0.68-0.77,1.53-1.11,2.33-0.07
		C659.05,641.53,656.43,643.76,653.8,645.99z"/>
	<path class="st1" d="M699.15,605.94c0.65-3.72,3.37-5.5,6.46-6.95C703.93,601.74,701.63,603.92,699.15,605.94z"/>
	<path class="st1" d="M670.16,632.59c0.74-3.08,3.01-4.29,5.86-4.79C674.45,629.87,672.3,631.22,670.16,632.59z"/>
	<path class="st13" d="M681.98,349.51c-14.68,0.48-26.87-5.49-37.57-14.93c-17.91-15.8-37.69-28.51-59.76-37.78
		c-13.53-5.68-27.51-9.74-41.64-13.49c-21.04-5.58-34.08-23.05-34.48-44.83c-0.22-11.92,2.14-22.93,10.07-31.88
		c8.31-9.37,18.87-14.49,31.81-12.29c35.48,6.01,67.13,21.15,96.26,41.67c21.72,15.3,40.18,34.12,55.8,55.64
		c4.59,6.32,8.18,13.27,10.78,20.66c5.96,16.98-7.52,36.59-25.53,37.21C685.8,349.57,683.89,349.51,681.98,349.51z"/>
	<path class="st14" d="M702.86,449.95c-0.04,0.92-0.07,1.85-0.11,2.77c-7.03,1.75-14,3.7-20.87-0.81
		c-7.33-4.8-14.91-9.2-22.34-13.84c-11.93-7.46-22.08-5.12-30.01,6.48c-0.99,1.45-1.92,2.93-3.22,4.14
		c-3.01,2.01-4.45,5.12-5.91,8.25c-0.77,1.64-1.15,3.67-3.45,4.04c-2.08-0.36-2.42-2.05-2.39-3.61c0.25-13.15-1.73-26.44,2.53-39.36
		c4.74-14.37,13.78-25.17,27.53-31.34c16.79-7.52,35.52-1.67,47.37,14.13c7.29,9.72,10.67,20.78,11.03,32.87
		c0.11,3.63,1.51,7.14,1.19,10.85C704.04,446.42,704.26,448.37,702.86,449.95z"/>
	<path class="st15" d="M625.87,448.1c4.83-9.33,11.3-16.16,22.94-15.51c4.01,0.22,7.36,1.92,10.62,3.92
		c8,4.91,16.01,9.83,23.91,14.9c2.69,1.73,5.14,2.42,8.46,1.7c3.51-0.76,7.28-0.31,10.94-0.39c3.95,1.35,8.19,2.16,10.91,5.82
		c-1.71,1.43-3.33,0.2-4.94-0.22c-7.36-1.92-13.72-0.62-19.11,5.13c-7.49,8-15.1,15.87-20.39,25.64c-2.62,4.83-4.32,9.94-5.06,15.3
		c-0.86,6.2,0.62,11.94,4.39,17.1c0.86,1.17,3.54,2.56,0.68,4.5c-6.43-1.52-8.43-7.21-11.2-12.09c-1.16-2.05-1.95-4.42-2.2-6.76
		c-0.6-5.45-3.63-8.84-8.29-11.32c-4.34-2.31-8.33-5.27-12.22-8.25c-10.84-8.3-14.62-19.54-12.68-32.85
		C623.01,452.22,623.66,449.74,625.87,448.1z"/>
	<path class="st16" d="M702.86,449.95c0.12-12.91-0.57-25.78-5.84-37.78c-6.89-15.69-20.43-28.22-39.78-27.23
		c-13.22,0.68-22.88,7.95-30.72,17.86c-7.56,9.55-10.81,20.68-10.75,32.82c0.04,6.85-0.03,13.7,0.05,20.55
		c0.02,1.6-0.78,3.68,1.73,4.36c1.06,3.5-0.94,6.89-0.4,10.38c2.1,40.07,0.69,80.17,1.14,120.25c0.08,7.05,2.04,9.47,8.83,10.88
		c11.34,2.36,22.84,1.59,34.25,1.09c3.27-0.14,6.63,0.85,9.84-0.33c6.52-8.87,16.47-14.25,23.16-23.02
		c3.83-5.03,6.25-10.17,5.55-16.57c-0.22-2.02-0.43-4.21,2.03-5.29c2.03,9.13,6.04,17.36,11.25,25.06
		c-9.35,7.68-19.55,14.14-29.5,20.97c-0.44,0.72-1.09,1-1.91,0.95c-6.68,2.59-12.32,7.25-19.13,9.57c-0.15-1.25,1.17-2.34,0.41-3.65
		c-1.83-2.16-3.83-0.51-5.9-0.27c-4.6-2.05-9.54-2.72-14.69-2.85c-7.05-0.17-14.09-0.53-21.11-1.7c-5.23-0.87-7.67-4.1-8.27-8.51
		c-0.86-6.31-1.08-12.67-0.65-19.14c0.36-5.42-0.42-11.02-0.57-16.56c-0.04-1.58-0.07-3.12,0.02-4.71c0.24-4.18,0.96-8.74-5.21-9.19
		c0.65-3.29,3.51-3.74,4.85-5.52c2.08-20.43,0.29-40.71-0.71-61.21c-3.39-1.1-6.64-2.16-10.22-3.32c1.97-3.24,4.37-4.9,9.25-3.54
		c-5.91-8.91,1.95-17.64-1.58-26.33c0.83-1.18,1.64-2.33,2.62-3.71c0.92-13.99,3.72-27.87,9.03-42.5c5.4-2.91,9.92-8.71,14.57-14.43
		c1.68-2.07,4.4-4.1,6.9-3.94c5.92,0.38,11.35-1.98,17.31-1.98c6.27,0,11.71,1.6,17.44,3.24c2.55,0.73,4.78,1.58,6.57,3.53
		c2.95,3.2,8.02,2.14,10.58,5.08c1.69,1.78-0.34,3.41,0.41,4.61c1.64,2.23,4.22,0.63,5.79,1.91c1.01,2.35-1.84,2.41-2.08,4.21
		c-0.12,2.5,2.69,3.05,3.78,4.71c0.17,7.82,3.11,15.08,2.93,24.62c-1.25,3.15,0.68,6.71,4.96,9.11c0.61,1.94,0.65,3.64-0.07,5.47
		C707.26,449.33,704.91,449.23,702.86,449.95z"/>
	<path class="st17" d="M746.85,490.11c-5.3,3.39-10.61,6.79-16.24,10.39c-1.36,0.08-3.08,0.19-4.96,0.3
		c-8.55,11.25-15.54,23.47-21.73,36.17c-4.97-3.11-9.65-6.63-14.52-9.88c-2.41-1.55-5.06-2.67-7.21-4.65
		c-6.48-5.96-8.43-13.07-5.17-21.22c4.28-10.72,11.76-19.32,19.94-27.11c5.52-5.25,12.75-4.07,19.5-2.19
		c2.9,0.81,5.56,2.36,8.14,3.96c2.49,4.49,7.08,6.15,11.39,7.78C740.05,485.2,743.7,487.15,746.85,490.11z"/>
	<path class="st18" d="M724.59,475.88c-1.34,0.84-2.43,0.02-3.54-0.54c-13.31-6.68-22.86-4.32-30.39,7.28
		c-3.18,4.9-7.55,8.96-10.32,14.2c-6.76,12.75-4.11,21.67,8.52,28.47c0.55,0.29,1.02,0.72,1.53,1.08c-3.7,3.48-8.44,3.24-13.01,3.64
		c-3.12-0.72-6.77-0.48-8.19-4.39c0.12-0.39,0.48-0.99,0.34-1.14c-10.24-10.88-7.76-22.78-2.2-34.44
		c5.61-11.75,14.61-21.1,24.02-29.87c5.32-4.96,12.01-4.91,18.71-2.75c1.2,0.39,2.4,0.75,3.6,1.12
		C719.34,463.04,723.66,468.39,724.59,475.88z"/>
	<path class="st19" d="M469.39,827.91c-10.07-2.22-19.64-5.74-28.57-10.92c1.17-1.72,0.87-3.67,0.87-5.56
		c0.01-23.1-0.01-46.2,0.01-69.3c0.02-15.25,13.22-23.27,26.69-16.26c4.85,2.52,6.72,6.92,7.72,11.9c0.03,0.15,0.01,0.32,0.01,0.48
		c-0.73,30.24,1.64,60.45,0.88,90.69C474.2,830.6,471.71,829.88,469.39,827.91z"/>
	<path class="st20" d="M469.39,827.91c2.54,0.34,5.07,0.68,7.61,1.02c15.02,3.02,30.19,3.17,45.38,2.23
		c6.94-0.43,13.84-1.48,20.76-2.25c11.73,2.3,22.36,7.41,32.73,12.93c8.99-1.23,16.51-5.51,23.93-10.05
		c1.32-0.81,2.46-2.73,4.45-1.19c-17.34,14.37-37.74,21.77-59.53,25.82c-12.14,2.26-24.46,4.13-36.77,3.71
		c-27.49-0.94-54.17-5.95-78.6-19.47c-5.51-3.05-10.88-6.45-15.41-10.96c2.25-1.69,3.42,0.41,4.78,1.45c3.81,2.92,8,5.03,12.48,6.76
		c3.15,1.22,6.26,1.64,9.17,0.23c7.91-3.82,17.23-3.71,24.59-8.98C466.27,828.24,468.21,829.35,469.39,827.91z"/>
	<path class="st21" d="M869.3,552.25c-1.4-9.42-7.2-16.08-14.18-21.79c-13.54-11.06-29.49-15.17-46.67-16.66
		c-15.75-1.36-30.69,0.99-45.01,7.08c-11.28,4.79-21.23,11.55-26.87,23.09c-1.41,2.89-2.4,5.87-2.26,9.14
		c-1.78-2.85-0.59-5.54,0.52-8.19c5.03-12.14,14.93-19.39,26.28-24.44c26.56-11.81,53.54-11.37,80.12-0.15
		c12.1,5.11,22.11,13.24,27.73,25.68C869.87,548.02,871.07,550.07,869.3,552.25z"/>
	<path class="st22" d="M872.29,549.82c-0.44,1.12-0.37,3.66-2.98,2.43c-1.4-9.42-7.2-16.08-14.18-21.79
		c-13.54-11.06-29.49-15.17-46.67-16.66c-15.75-1.36-30.69,0.99-45.01,7.08c-11.28,4.79-21.23,11.55-26.87,23.09
		c-1.41,2.89-2.4,5.87-2.26,9.14c-6.49-7.08-5.67-19.96-1.19-27.64c7.84-13.43,20.17-20.78,34.54-25.19
		c27.84-8.57,55.04-7.54,81.29,5.99c8.37,4.31,15.24,10.41,20.49,18.16C874.78,532.3,875.79,540.89,872.29,549.82z"/>
	<path class="st23" d="M677.04,529.04c4.57-0.29,8.93-1.64,13.35-2.68c4.38,3.7,10.21,5.54,13.52,10.61
		c-2.81,6.78-2.16,13.89-1.97,20.95c-1.04,1.71-1.25,3.59-0.9,5.5c1.03,5.64-0.73,10.7-3.97,15.01c-4.74,6.3-10.33,11.8-16.82,16.45
		c-2.85,2.04-4.78,5.37-7.12,8.11c-1.65,0.93-3.29,1.42-4.9-0.08c0.03-1.09,0.73-1.79,1.56-2.24c5.5-3,6.79-7.9,6.72-13.74
		c-0.2-16.88-1.64-33.74-0.98-50.64C675.62,533.81,674.99,531.14,677.04,529.04z"/>
	<path class="st1" d="M681.78,604.9c0.41-0.76,1.12-0.93,1.91-0.95c2.43,0.5,4.85,1,7.84,1.61c-1.76,4.74-7.82,3.65-9.02,8.52
		C678.42,610.51,679.91,607.71,681.78,604.9z"/>
	<path class="st1" d="M673.43,620.36c0.72-1.46,1.45-2.93,2.2-4.46c1.49-0.67,2.87-0.72,4.25,0.62
		C678.75,619.31,675.9,619.38,673.43,620.36z"/>
	<path class="st1" d="M671.22,620.36c1.36,1.43,0.97,2.63,0.69,3.83c-1.2,1.07-2.5,0.96-4.03,0.28
		C667.89,622.29,669.54,621.48,671.22,620.36z"/>
	<path class="st24" d="M677.04,529.04c0.26,19.5,0.29,39.01,0.9,58.49c0.24,7.71-2.32,12.85-9.65,15.41
		c-4.51,1.04-9.09,1.1-13.67,0.97c-6.62-0.19-11.02-4.38-11.46-11.02c-0.31-4.61-0.1-9.24-0.11-13.86
		c-0.02-9.72-0.24-19.45,0.06-29.16c0.37-12.13-1.3-24.17-1.07-36.29c0.08-4.33-2-7.6-5.49-10.05c-1.7-1.2-3.52-2.19-5.33-3.2
		c-10.09-5.64-15.21-14.14-14.95-25.8c0.03-1.57,0.32-3.19-0.34-4.72c-0.45-3.27,0.65-6.27,1.64-9.29
		c2.25-4.49,2.97-10.01,8.32-12.43c-5.42,18.03-1.28,30.85,12.96,40.28c5.68,3.77,11.31,7.62,16.93,11.41
		c1.28,10.38,4.4,19.65,13.43,25.81C671.33,527.83,674.4,527.94,677.04,529.04z"/>
	<path class="st25" d="M615.91,469.82c1.14,4.28,0.69,8.77,2.35,13.06c2.75,7.13,6.7,13.11,13.81,16.29
		c8.63,3.86,11.73,10.11,11.8,19.66c0.17,24.36,0.6,48.72,0.64,73.09c0.01,6.88,3.41,10.6,10.4,11.02
		c4.44,0.27,8.92,0.03,13.38,0.01c1.62,0.02,3.23,0.03,4.85,0.05c-0.66,1.56-1.96,2.13-3.5,1.86c-7.42-1.31-14.81,0.38-22.25,0.15
		c-8.58-0.26-17.16,0.07-25.85-2.67c-3.68-2.32-4.91-5.99-4.89-10.73c0.15-33.46,0.1-66.93,0.06-100.39
		C616.7,484.07,614.99,476.99,615.91,469.82z"/>
</g>
</svg>
